<svg xmlns="http://www.w3.org/2000/svg"  viewBox="0 0 100 100" width="100px" height="100px" baseProfile="basic"><path fill="#99c0d3" d="M75.003,79.959c-2.822,0.323-5.923-0.087-8.461-0.084c-5.497,0.005-10.995,0.015-16.492,0.024	c-4.157,0.007-8.314,0.014-12.472,0.019c-3.672,0.004-7.559,0.366-11.204-0.174c-4.059-0.437-7.242-3.376-7.242-7.647	c0-10.957-0.008-22.134-0.024-33.175c-0.006-4.378-0.255-8.821,0.029-13.193c0.21-3.227,1.021-7.793,4.588-8.959	c0.982-0.321,2.028-0.372,3.06-0.413c13.508-0.544,27.143-0.431,40.657-0.118c3.502,0.083,7.625-0.712,10.91,0.788	c2.679,1.224,4.413,4.055,4.413,6.983c0,8.064,0,16.127,0,24.191c0,4.612-0.14,9.212-0.022,13.819	c0.12,4.691,1.343,11.866-2.254,15.541c-0.181,0.185-0.372,0.361-0.57,0.527C78.551,79.23,76.836,79.749,75.003,79.959z"/><path fill="#f2cc3a" d="M69.905,28.103c-2.492-2.105-6.088-1.998-8.562,0.072c-2.069,1.732-2.92,4.926-1.886,7.445	c0.485,1.182,1.384,2.116,2.523,2.439c1.174,0.918,2.623,1.457,4.168,1.319c2.61-0.233,4.974-1.974,5.778-4.511	C72.689,32.459,71.817,29.718,69.905,28.103z"/><path fill="#c4dceb" d="M82.31,62.128c-0.018-0.072-0.052-0.132-0.074-0.201c-0.017-0.185-0.024-0.369-0.043-0.555	c-0.001-0.012-0.005-0.022-0.006-0.033c0.876-1.264,1.001-2.981-0.441-4.251c-2.476-2.181-4.61-4.61-7.229-6.605	c-0.175-0.817-0.684-1.583-1.642-2.125c-2.871-1.623-5.725-0.763-8.236,1.082c-2.489,1.828-4.862,3.775-6.838,6.16	c-0.047,0.039-0.095,0.076-0.141,0.114c-2.013,1.674-1.175,4.024,0.551,5.149c0.655,0.603,1.48,0.96,2.322,0.92	c0.796,2.267,3.741,2.946,5.701,1.346c0.054,0.502,0.141,0.998,0.313,1.472c0.498,1.373,1.649,2.21,2.874,2.431	c0.123,0.969,0.337,1.895,0.64,2.722c-0.758,1.054-0.799,2.22-0.398,3.225c-2.046,0.155-4.433-0.051-5.442,0.03	c-4.45,0.356-4.554,6.825,0,7c4.476,0.172,10.421,1.298,14.404-1.212c3.323-2.094,4.176-6.469,4.176-10.592	C82.93,66.198,82.836,64.202,82.31,62.128z"/><path fill="#3158a7" d="M76.954,74.376c-3.867-4.717-7.904-9.285-12.173-13.644c-2.574-2.629-5.24-5.894-8.489-7.889	c-3.072-3.567-5.901-7.217-9.958-9.68c-3.097-3.132-6.415-4.802-10.832-2.279c-4.752,2.715-8.904,7.306-12.954,11.237	c-0.639,0.591-1.274,1.19-1.907,1.799c-0.774,0.745-0.999,1.598-0.88,2.391c-0.378,0.467-0.631,1.074-0.658,1.83	c-0.194,5.3-2.195,13.784,1.294,18.381c2.949,3.886,9.107,3.235,13.819,2.548c3.513,0.868,7.724,0.521,10.984,0.635	c2.958,0.104,5.918,0.141,8.877,0.158c2.459,0.014,5.83,0.553,8.202-0.277c0.388-0.136,0.754-0.347,1.078-0.607	c2.809,0.166,5.618,0.333,8.427,0.499c0.323,0.019,0.608-0.019,0.877-0.08c0.724,0.031,1.448,0.07,2.172,0.1	C77.66,79.614,78.484,76.242,76.954,74.376z"/><path d="M79.873,51.093c0,0-0.101,3.063-0.28,8.526c-0.041,1.376-0.086,2.903-0.136,4.572c-0.061,1.678,0.067,3.51,0.098,5.44	c0.024,1.927,0.018,4.002-0.436,6.063c-0.437,2.051-1.441,4.074-3.37,5.155c-1.892,1.096-4.405,1.223-6.998,1.103	c-1.336-0.084-2.698-0.169-4.084-0.256c-1.461-0.061-2.829-0.057-4.287-0.088c-5.788-0.077-11.952-0.16-18.421-0.246	c-3.256-0.016-6.535-0.109-10.003-0.05c-1.703,0.031-3.392,0.071-5.056,0.01c-0.832-0.03-1.656-0.087-2.467-0.188	c-0.885-0.118-1.588-0.206-2.273-0.439c-1.37-0.442-2.575-1.302-3.324-2.461c-0.379-0.577-0.638-1.228-0.779-1.918	c-0.065-0.347-0.119-0.699-0.122-1.064l-0.013-0.274l0.001-0.341l0.002-0.683c0.004-3.647,0.007-7.345,0.011-11.088	c-0.032-7.486-0.062-14.795-0.092-21.866c-0.053-3.567-0.221-7.009-0.146-10.329c0.04-1.672,0.108-3.276,0.399-4.759	c0.286-1.475,0.774-2.876,1.577-3.803c0.8-0.935,1.822-1.317,3.305-1.434c1.488-0.103,3.101-0.174,4.613-0.246	c3.061-0.143,6.035-0.255,8.913-0.344c5.755-0.174,11.122-0.263,16.023-0.314c4.896-0.038,9.342-0.072,13.26-0.103	c1.972-0.099,3.76-0.291,5.399-0.253c1.635,0.023,3.118,0.278,4.327,0.83c1.212,0.541,2.105,1.379,2.741,2.19	c0.625,0.827,1.006,1.638,1.23,2.316c0.226,0.681,0.297,1.228,0.349,1.594c0.027,0.369,0.041,0.558,0.041,0.558	s-0.001-0.19-0.002-0.561c-0.027-0.369-0.061-0.926-0.246-1.633c-0.184-0.705-0.519-1.559-1.115-2.459	c-0.608-0.883-1.492-1.824-2.761-2.484c-1.259-0.667-2.828-1.025-4.524-1.141c-1.699-0.132-3.536-0.032-5.459-0.036	c-3.906-0.155-8.338-0.33-13.219-0.523c-4.91-0.163-10.291-0.286-16.074-0.312c-2.891-0.011-5.883,0.005-8.965,0.057	c-1.56,0.029-3.063,0.049-4.731,0.119c-0.851,0.059-1.787,0.152-2.745,0.538c-0.959,0.359-1.841,0.984-2.515,1.737	c-1.359,1.529-1.958,3.358-2.352,5.108c-0.385,1.774-0.486,3.541-0.562,5.26c-0.144,3.469-0.028,6.962-0.024,10.453	c-0.018,7.064-0.036,14.366-0.054,21.843c0.009,3.742,0.018,7.44,0.027,11.087l0.003,0.683l0.001,0.341l0.018,0.407	c0.013,0.544,0.095,1.092,0.204,1.631c0.231,1.078,0.662,2.128,1.278,3.047c1.229,1.856,3.125,3.133,5.113,3.742	c0.994,0.323,2.049,0.435,2.896,0.535c0.927,0.1,1.841,0.148,2.741,0.167c1.8,0.036,3.543-0.039,5.234-0.101	c3.321-0.122,6.692-0.104,9.922-0.167c6.469-0.105,12.632-0.206,18.42-0.3c1.426-0.019,2.895-0.072,4.216-0.065	c1.357,0.018,2.732,0.094,4.101,0.101c2.705,0.008,5.571-0.18,7.938-1.67c1.158-0.741,2.085-1.756,2.697-2.893	c0.614-1.129,0.944-2.312,1.145-3.45c0.387-2.288,0.275-4.42,0.153-6.378c-0.133-1.964-0.355-3.749-0.385-5.411	c-0.044-1.664-0.085-3.188-0.122-4.561C79.964,54.153,79.873,51.093,79.873,51.093z"/></svg>